<mxfile host="app.diagrams.net" modified="2021-03-07T03:00:49.353Z" agent="5.0 (Macintosh; Intel Mac OS X 10_15_6) AppleWebKit/537.36 (KHTML, like Gecko) Chrome/88.0.4324.150 Safari/537.36" etag="RDwY4yQBkTn9bZDLYxVD" version="14.4.4" type="github">
  <diagram id="1-YyqmTq92My7mb7XTu-" name="Page-1">
    <mxGraphModel dx="806" dy="681" grid="1" gridSize="10" guides="1" tooltips="1" connect="1" arrows="1" fold="1" page="1" pageScale="1" pageWidth="850" pageHeight="1100" math="0" shadow="0">
      <root>
        <mxCell id="0" />
        <mxCell id="1" parent="0" />
        <mxCell id="PwV4E91g5WFUvwwfSj-Z-1" value="Actor" style="shape=umlActor;verticalLabelPosition=bottom;verticalAlign=top;html=1;outlineConnect=0;" vertex="1" parent="1">
          <mxGeometry x="170" y="20" width="30" height="60" as="geometry" />
        </mxCell>
        <mxCell id="PwV4E91g5WFUvwwfSj-Z-8" value="employee" style="shape=table;startSize=30;container=1;collapsible=1;childLayout=tableLayout;fixedRows=1;rowLines=0;fontStyle=1;align=center;resizeLast=1;" vertex="1" parent="1">
          <mxGeometry x="120" y="150" width="180" height="190" as="geometry" />
        </mxCell>
        <mxCell id="PwV4E91g5WFUvwwfSj-Z-9" value="" style="shape=partialRectangle;collapsible=0;dropTarget=0;pointerEvents=0;fillColor=none;top=0;left=0;bottom=1;right=0;points=[[0,0.5],[1,0.5]];portConstraint=eastwest;" vertex="1" parent="PwV4E91g5WFUvwwfSj-Z-8">
          <mxGeometry y="30" width="180" height="30" as="geometry" />
        </mxCell>
        <mxCell id="PwV4E91g5WFUvwwfSj-Z-10" value="PK" style="shape=partialRectangle;connectable=0;fillColor=none;top=0;left=0;bottom=0;right=0;fontStyle=1;overflow=hidden;" vertex="1" parent="PwV4E91g5WFUvwwfSj-Z-9">
          <mxGeometry width="30" height="30" as="geometry" />
        </mxCell>
        <mxCell id="PwV4E91g5WFUvwwfSj-Z-11" value="emplID" style="shape=partialRectangle;connectable=0;fillColor=none;top=0;left=0;bottom=0;right=0;align=left;spacingLeft=6;fontStyle=5;overflow=hidden;" vertex="1" parent="PwV4E91g5WFUvwwfSj-Z-9">
          <mxGeometry x="30" width="150" height="30" as="geometry" />
        </mxCell>
        <mxCell id="PwV4E91g5WFUvwwfSj-Z-12" value="" style="shape=partialRectangle;collapsible=0;dropTarget=0;pointerEvents=0;fillColor=none;top=0;left=0;bottom=0;right=0;points=[[0,0.5],[1,0.5]];portConstraint=eastwest;" vertex="1" parent="PwV4E91g5WFUvwwfSj-Z-8">
          <mxGeometry y="60" width="180" height="30" as="geometry" />
        </mxCell>
        <mxCell id="PwV4E91g5WFUvwwfSj-Z-13" value="" style="shape=partialRectangle;connectable=0;fillColor=none;top=0;left=0;bottom=0;right=0;editable=1;overflow=hidden;" vertex="1" parent="PwV4E91g5WFUvwwfSj-Z-12">
          <mxGeometry width="30" height="30" as="geometry" />
        </mxCell>
        <mxCell id="PwV4E91g5WFUvwwfSj-Z-14" value="name" style="shape=partialRectangle;connectable=0;fillColor=none;top=0;left=0;bottom=0;right=0;align=left;spacingLeft=6;overflow=hidden;fontStyle=1" vertex="1" parent="PwV4E91g5WFUvwwfSj-Z-12">
          <mxGeometry x="30" width="150" height="30" as="geometry" />
        </mxCell>
        <mxCell id="PwV4E91g5WFUvwwfSj-Z-15" value="" style="shape=partialRectangle;collapsible=0;dropTarget=0;pointerEvents=0;fillColor=none;top=0;left=0;bottom=0;right=0;points=[[0,0.5],[1,0.5]];portConstraint=eastwest;" vertex="1" parent="PwV4E91g5WFUvwwfSj-Z-8">
          <mxGeometry y="90" width="180" height="30" as="geometry" />
        </mxCell>
        <mxCell id="PwV4E91g5WFUvwwfSj-Z-16" value="" style="shape=partialRectangle;connectable=0;fillColor=none;top=0;left=0;bottom=0;right=0;editable=1;overflow=hidden;" vertex="1" parent="PwV4E91g5WFUvwwfSj-Z-15">
          <mxGeometry width="30" height="30" as="geometry" />
        </mxCell>
        <mxCell id="PwV4E91g5WFUvwwfSj-Z-17" value="lastname" style="shape=partialRectangle;connectable=0;fillColor=none;top=0;left=0;bottom=0;right=0;align=left;spacingLeft=6;overflow=hidden;fontStyle=1" vertex="1" parent="PwV4E91g5WFUvwwfSj-Z-15">
          <mxGeometry x="30" width="150" height="30" as="geometry" />
        </mxCell>
        <mxCell id="PwV4E91g5WFUvwwfSj-Z-64" value="" style="shape=partialRectangle;collapsible=0;dropTarget=0;pointerEvents=0;fillColor=none;top=0;left=0;bottom=0;right=0;points=[[0,0.5],[1,0.5]];portConstraint=eastwest;" vertex="1" parent="PwV4E91g5WFUvwwfSj-Z-8">
          <mxGeometry y="120" width="180" height="30" as="geometry" />
        </mxCell>
        <mxCell id="PwV4E91g5WFUvwwfSj-Z-65" value="" style="shape=partialRectangle;connectable=0;fillColor=none;top=0;left=0;bottom=0;right=0;editable=1;overflow=hidden;" vertex="1" parent="PwV4E91g5WFUvwwfSj-Z-64">
          <mxGeometry width="30" height="30" as="geometry" />
        </mxCell>
        <mxCell id="PwV4E91g5WFUvwwfSj-Z-66" value="email" style="shape=partialRectangle;connectable=0;fillColor=none;top=0;left=0;bottom=0;right=0;align=left;spacingLeft=6;overflow=hidden;fontStyle=1" vertex="1" parent="PwV4E91g5WFUvwwfSj-Z-64">
          <mxGeometry x="30" width="150" height="30" as="geometry" />
        </mxCell>
        <mxCell id="PwV4E91g5WFUvwwfSj-Z-67" value="" style="shape=partialRectangle;collapsible=0;dropTarget=0;pointerEvents=0;fillColor=none;top=0;left=0;bottom=0;right=0;points=[[0,0.5],[1,0.5]];portConstraint=eastwest;" vertex="1" parent="PwV4E91g5WFUvwwfSj-Z-8">
          <mxGeometry y="150" width="180" height="30" as="geometry" />
        </mxCell>
        <mxCell id="PwV4E91g5WFUvwwfSj-Z-68" value="FK" style="shape=partialRectangle;connectable=0;fillColor=none;top=0;left=0;bottom=0;right=0;editable=1;overflow=hidden;" vertex="1" parent="PwV4E91g5WFUvwwfSj-Z-67">
          <mxGeometry width="30" height="30" as="geometry" />
        </mxCell>
        <mxCell id="PwV4E91g5WFUvwwfSj-Z-69" value="depID" style="shape=partialRectangle;connectable=0;fillColor=none;top=0;left=0;bottom=0;right=0;align=left;spacingLeft=6;overflow=hidden;fontStyle=1" vertex="1" parent="PwV4E91g5WFUvwwfSj-Z-67">
          <mxGeometry x="30" width="150" height="30" as="geometry" />
        </mxCell>
        <mxCell id="PwV4E91g5WFUvwwfSj-Z-21" value="departments" style="shape=table;startSize=30;container=1;collapsible=1;childLayout=tableLayout;fixedRows=1;rowLines=0;fontStyle=1;align=center;resizeLast=1;" vertex="1" parent="1">
          <mxGeometry x="120" y="410" width="180" height="130" as="geometry" />
        </mxCell>
        <mxCell id="PwV4E91g5WFUvwwfSj-Z-22" value="" style="shape=partialRectangle;collapsible=0;dropTarget=0;pointerEvents=0;fillColor=none;top=0;left=0;bottom=1;right=0;points=[[0,0.5],[1,0.5]];portConstraint=eastwest;" vertex="1" parent="PwV4E91g5WFUvwwfSj-Z-21">
          <mxGeometry y="30" width="180" height="30" as="geometry" />
        </mxCell>
        <mxCell id="PwV4E91g5WFUvwwfSj-Z-23" value="PK" style="shape=partialRectangle;connectable=0;fillColor=none;top=0;left=0;bottom=0;right=0;fontStyle=1;overflow=hidden;" vertex="1" parent="PwV4E91g5WFUvwwfSj-Z-22">
          <mxGeometry width="30" height="30" as="geometry" />
        </mxCell>
        <mxCell id="PwV4E91g5WFUvwwfSj-Z-24" value="depID" style="shape=partialRectangle;connectable=0;fillColor=none;top=0;left=0;bottom=0;right=0;align=left;spacingLeft=6;fontStyle=5;overflow=hidden;" vertex="1" parent="PwV4E91g5WFUvwwfSj-Z-22">
          <mxGeometry x="30" width="150" height="30" as="geometry" />
        </mxCell>
        <mxCell id="PwV4E91g5WFUvwwfSj-Z-25" value="" style="shape=partialRectangle;collapsible=0;dropTarget=0;pointerEvents=0;fillColor=none;top=0;left=0;bottom=0;right=0;points=[[0,0.5],[1,0.5]];portConstraint=eastwest;" vertex="1" parent="PwV4E91g5WFUvwwfSj-Z-21">
          <mxGeometry y="60" width="180" height="30" as="geometry" />
        </mxCell>
        <mxCell id="PwV4E91g5WFUvwwfSj-Z-26" value="" style="shape=partialRectangle;connectable=0;fillColor=none;top=0;left=0;bottom=0;right=0;editable=1;overflow=hidden;" vertex="1" parent="PwV4E91g5WFUvwwfSj-Z-25">
          <mxGeometry width="30" height="30" as="geometry" />
        </mxCell>
        <mxCell id="PwV4E91g5WFUvwwfSj-Z-27" value="name" style="shape=partialRectangle;connectable=0;fillColor=none;top=0;left=0;bottom=0;right=0;align=left;spacingLeft=6;overflow=hidden;" vertex="1" parent="PwV4E91g5WFUvwwfSj-Z-25">
          <mxGeometry x="30" width="150" height="30" as="geometry" />
        </mxCell>
        <mxCell id="PwV4E91g5WFUvwwfSj-Z-28" value="" style="shape=partialRectangle;collapsible=0;dropTarget=0;pointerEvents=0;fillColor=none;top=0;left=0;bottom=0;right=0;points=[[0,0.5],[1,0.5]];portConstraint=eastwest;" vertex="1" parent="PwV4E91g5WFUvwwfSj-Z-21">
          <mxGeometry y="90" width="180" height="30" as="geometry" />
        </mxCell>
        <mxCell id="PwV4E91g5WFUvwwfSj-Z-29" value="" style="shape=partialRectangle;connectable=0;fillColor=none;top=0;left=0;bottom=0;right=0;editable=1;overflow=hidden;" vertex="1" parent="PwV4E91g5WFUvwwfSj-Z-28">
          <mxGeometry width="30" height="30" as="geometry" />
        </mxCell>
        <mxCell id="PwV4E91g5WFUvwwfSj-Z-30" value="Row 2" style="shape=partialRectangle;connectable=0;fillColor=none;top=0;left=0;bottom=0;right=0;align=left;spacingLeft=6;overflow=hidden;" vertex="1" parent="PwV4E91g5WFUvwwfSj-Z-28">
          <mxGeometry x="30" width="150" height="30" as="geometry" />
        </mxCell>
        <mxCell id="PwV4E91g5WFUvwwfSj-Z-38" value="Table" style="shape=table;startSize=30;container=1;collapsible=1;childLayout=tableLayout;fixedRows=1;rowLines=0;fontStyle=1;align=center;resizeLast=1;" vertex="1" parent="1">
          <mxGeometry x="370" y="150" width="180" height="120" as="geometry" />
        </mxCell>
        <mxCell id="PwV4E91g5WFUvwwfSj-Z-39" value="" style="shape=partialRectangle;collapsible=0;dropTarget=0;pointerEvents=0;fillColor=none;top=0;left=0;bottom=0;right=0;points=[[0,0.5],[1,0.5]];portConstraint=eastwest;" vertex="1" parent="PwV4E91g5WFUvwwfSj-Z-38">
          <mxGeometry y="30" width="180" height="30" as="geometry" />
        </mxCell>
        <mxCell id="PwV4E91g5WFUvwwfSj-Z-40" value="PK,FK1" style="shape=partialRectangle;connectable=0;fillColor=none;top=0;left=0;bottom=0;right=0;fontStyle=1;overflow=hidden;" vertex="1" parent="PwV4E91g5WFUvwwfSj-Z-39">
          <mxGeometry width="60" height="30" as="geometry" />
        </mxCell>
        <mxCell id="PwV4E91g5WFUvwwfSj-Z-41" value="emplid" style="shape=partialRectangle;connectable=0;fillColor=none;top=0;left=0;bottom=0;right=0;align=left;spacingLeft=6;fontStyle=5;overflow=hidden;" vertex="1" parent="PwV4E91g5WFUvwwfSj-Z-39">
          <mxGeometry x="60" width="120" height="30" as="geometry" />
        </mxCell>
        <mxCell id="PwV4E91g5WFUvwwfSj-Z-42" value="" style="shape=partialRectangle;collapsible=0;dropTarget=0;pointerEvents=0;fillColor=none;top=0;left=0;bottom=1;right=0;points=[[0,0.5],[1,0.5]];portConstraint=eastwest;" vertex="1" parent="PwV4E91g5WFUvwwfSj-Z-38">
          <mxGeometry y="60" width="180" height="30" as="geometry" />
        </mxCell>
        <mxCell id="PwV4E91g5WFUvwwfSj-Z-43" value="PK,FK2" style="shape=partialRectangle;connectable=0;fillColor=none;top=0;left=0;bottom=0;right=0;fontStyle=1;overflow=hidden;" vertex="1" parent="PwV4E91g5WFUvwwfSj-Z-42">
          <mxGeometry width="60" height="30" as="geometry" />
        </mxCell>
        <mxCell id="PwV4E91g5WFUvwwfSj-Z-44" value="skilled" style="shape=partialRectangle;connectable=0;fillColor=none;top=0;left=0;bottom=0;right=0;align=left;spacingLeft=6;fontStyle=5;overflow=hidden;" vertex="1" parent="PwV4E91g5WFUvwwfSj-Z-42">
          <mxGeometry x="60" width="120" height="30" as="geometry" />
        </mxCell>
        <mxCell id="PwV4E91g5WFUvwwfSj-Z-45" value="" style="shape=partialRectangle;collapsible=0;dropTarget=0;pointerEvents=0;fillColor=none;top=0;left=0;bottom=0;right=0;points=[[0,0.5],[1,0.5]];portConstraint=eastwest;" vertex="1" parent="PwV4E91g5WFUvwwfSj-Z-38">
          <mxGeometry y="90" width="180" height="30" as="geometry" />
        </mxCell>
        <mxCell id="PwV4E91g5WFUvwwfSj-Z-46" value="" style="shape=partialRectangle;connectable=0;fillColor=none;top=0;left=0;bottom=0;right=0;editable=1;overflow=hidden;" vertex="1" parent="PwV4E91g5WFUvwwfSj-Z-45">
          <mxGeometry width="60" height="30" as="geometry" />
        </mxCell>
        <mxCell id="PwV4E91g5WFUvwwfSj-Z-47" value="Row 3" style="shape=partialRectangle;connectable=0;fillColor=none;top=0;left=0;bottom=0;right=0;align=left;spacingLeft=6;overflow=hidden;" vertex="1" parent="PwV4E91g5WFUvwwfSj-Z-45">
          <mxGeometry x="60" width="120" height="30" as="geometry" />
        </mxCell>
        <mxCell id="PwV4E91g5WFUvwwfSj-Z-51" value="Table" style="shape=table;startSize=30;container=1;collapsible=1;childLayout=tableLayout;fixedRows=1;rowLines=0;fontStyle=1;align=center;resizeLast=1;" vertex="1" parent="1">
          <mxGeometry x="610" y="150" width="180" height="130" as="geometry" />
        </mxCell>
        <mxCell id="PwV4E91g5WFUvwwfSj-Z-52" value="" style="shape=partialRectangle;collapsible=0;dropTarget=0;pointerEvents=0;fillColor=none;top=0;left=0;bottom=1;right=0;points=[[0,0.5],[1,0.5]];portConstraint=eastwest;" vertex="1" parent="PwV4E91g5WFUvwwfSj-Z-51">
          <mxGeometry y="30" width="180" height="30" as="geometry" />
        </mxCell>
        <mxCell id="PwV4E91g5WFUvwwfSj-Z-53" value="PK" style="shape=partialRectangle;connectable=0;fillColor=none;top=0;left=0;bottom=0;right=0;fontStyle=1;overflow=hidden;" vertex="1" parent="PwV4E91g5WFUvwwfSj-Z-52">
          <mxGeometry width="30" height="30" as="geometry" />
        </mxCell>
        <mxCell id="PwV4E91g5WFUvwwfSj-Z-54" value="skilled" style="shape=partialRectangle;connectable=0;fillColor=none;top=0;left=0;bottom=0;right=0;align=left;spacingLeft=6;fontStyle=5;overflow=hidden;" vertex="1" parent="PwV4E91g5WFUvwwfSj-Z-52">
          <mxGeometry x="30" width="150" height="30" as="geometry" />
        </mxCell>
        <mxCell id="PwV4E91g5WFUvwwfSj-Z-55" value="" style="shape=partialRectangle;collapsible=0;dropTarget=0;pointerEvents=0;fillColor=none;top=0;left=0;bottom=0;right=0;points=[[0,0.5],[1,0.5]];portConstraint=eastwest;" vertex="1" parent="PwV4E91g5WFUvwwfSj-Z-51">
          <mxGeometry y="60" width="180" height="30" as="geometry" />
        </mxCell>
        <mxCell id="PwV4E91g5WFUvwwfSj-Z-56" value="" style="shape=partialRectangle;connectable=0;fillColor=none;top=0;left=0;bottom=0;right=0;editable=1;overflow=hidden;" vertex="1" parent="PwV4E91g5WFUvwwfSj-Z-55">
          <mxGeometry width="30" height="30" as="geometry" />
        </mxCell>
        <mxCell id="PwV4E91g5WFUvwwfSj-Z-57" value="Row 1" style="shape=partialRectangle;connectable=0;fillColor=none;top=0;left=0;bottom=0;right=0;align=left;spacingLeft=6;overflow=hidden;" vertex="1" parent="PwV4E91g5WFUvwwfSj-Z-55">
          <mxGeometry x="30" width="150" height="30" as="geometry" />
        </mxCell>
        <mxCell id="PwV4E91g5WFUvwwfSj-Z-58" value="" style="shape=partialRectangle;collapsible=0;dropTarget=0;pointerEvents=0;fillColor=none;top=0;left=0;bottom=0;right=0;points=[[0,0.5],[1,0.5]];portConstraint=eastwest;" vertex="1" parent="PwV4E91g5WFUvwwfSj-Z-51">
          <mxGeometry y="90" width="180" height="30" as="geometry" />
        </mxCell>
        <mxCell id="PwV4E91g5WFUvwwfSj-Z-59" value="" style="shape=partialRectangle;connectable=0;fillColor=none;top=0;left=0;bottom=0;right=0;editable=1;overflow=hidden;" vertex="1" parent="PwV4E91g5WFUvwwfSj-Z-58">
          <mxGeometry width="30" height="30" as="geometry" />
        </mxCell>
        <mxCell id="PwV4E91g5WFUvwwfSj-Z-60" value="Row 2" style="shape=partialRectangle;connectable=0;fillColor=none;top=0;left=0;bottom=0;right=0;align=left;spacingLeft=6;overflow=hidden;" vertex="1" parent="PwV4E91g5WFUvwwfSj-Z-58">
          <mxGeometry x="30" width="150" height="30" as="geometry" />
        </mxCell>
        <mxCell id="PwV4E91g5WFUvwwfSj-Z-70" value="" style="edgeStyle=entityRelationEdgeStyle;fontSize=12;html=1;endArrow=ERzeroToMany;startArrow=ERmandOne;strokeWidth=2;" edge="1" parent="1" source="PwV4E91g5WFUvwwfSj-Z-22" target="PwV4E91g5WFUvwwfSj-Z-67">
          <mxGeometry width="100" height="100" relative="1" as="geometry">
            <mxPoint x="340" y="420" as="sourcePoint" />
            <mxPoint x="330" y="320" as="targetPoint" />
          </mxGeometry>
        </mxCell>
        <mxCell id="PwV4E91g5WFUvwwfSj-Z-71" value="" style="edgeStyle=entityRelationEdgeStyle;fontSize=12;html=1;endArrow=ERzeroToMany;startArrow=ERmandOne;strokeWidth=2;exitX=0;exitY=0.5;exitDx=0;exitDy=0;entryX=1;entryY=0.5;entryDx=0;entryDy=0;" edge="1" parent="1" source="PwV4E91g5WFUvwwfSj-Z-52" target="PwV4E91g5WFUvwwfSj-Z-42">
          <mxGeometry width="100" height="100" relative="1" as="geometry">
            <mxPoint x="560" y="300" as="sourcePoint" />
            <mxPoint x="560" y="160" as="targetPoint" />
          </mxGeometry>
        </mxCell>
        <mxCell id="PwV4E91g5WFUvwwfSj-Z-72" value="" style="edgeStyle=entityRelationEdgeStyle;fontSize=12;html=1;endArrow=ERzeroToMany;startArrow=ERmandOne;strokeWidth=2;exitX=1;exitY=0.5;exitDx=0;exitDy=0;entryX=0;entryY=0.5;entryDx=0;entryDy=0;" edge="1" parent="1" source="PwV4E91g5WFUvwwfSj-Z-9" target="PwV4E91g5WFUvwwfSj-Z-39">
          <mxGeometry width="100" height="100" relative="1" as="geometry">
            <mxPoint x="640" y="550" as="sourcePoint" />
            <mxPoint x="640" y="410" as="targetPoint" />
          </mxGeometry>
        </mxCell>
      </root>
    </mxGraphModel>
  </diagram>
</mxfile>
